<svg id="Layer_1" data-name="Layer 1" xmlns="http://www.w3.org/2000/svg" viewBox="0 0 438.66 100.17"><defs><style>.cls-1{fill:#fff;}.cls-2{fill:#f46200;}</style></defs><title>logo_w</title><path class="cls-1" d="M99.32,12.39V85.74H82.94V56H50.54V85.74H34.16V12.39H50.54V41.46h32.4V12.39Z" transform="translate(-34.16 -7.53)"/><path class="cls-1" d="M150.62,35.29a25.73,25.73,0,0,1,10,9.86,28.15,28.15,0,0,1,3.6,14.22,28.15,28.15,0,0,1-3.6,14.22,25.73,25.73,0,0,1-10,9.86,31,31,0,0,1-28.8,0,25.73,25.73,0,0,1-10-9.86,28.15,28.15,0,0,1-3.6-14.22,28.15,28.15,0,0,1,3.6-14.22,25.73,25.73,0,0,1,10-9.86,31,31,0,0,1,28.8,0Zm-23.45,14a14.61,14.61,0,0,0-3.46,10,14.61,14.61,0,0,0,3.46,10,12.42,12.42,0,0,0,18.09,0,14.61,14.61,0,0,0,3.47-10,14.61,14.61,0,0,0-3.47-10,12.42,12.42,0,0,0-18.09,0Z" transform="translate(-34.16 -7.53)"/><path class="cls-1" d="M188.69,80.34v5.4h-16V10.14h16V38.4q5-6.66,15.12-6.66a25.22,25.22,0,0,1,13.32,3.55,24.33,24.33,0,0,1,9.09,9.86,30.64,30.64,0,0,1,3.24,14.22,30.64,30.64,0,0,1-3.24,14.22,24.33,24.33,0,0,1-9.09,9.86A25.22,25.22,0,0,1,203.81,87Q193.64,87,188.69,80.34Zm21.69-10.93a14.73,14.73,0,0,0,3.42-10,14.73,14.73,0,0,0-3.42-10,11.5,11.5,0,0,0-9.09-3.91,12,12,0,0,0-9.36,3.91,14.49,14.49,0,0,0-3.51,10,14.49,14.49,0,0,0,3.51,10,12,12,0,0,0,9.36,3.91A11.47,11.47,0,0,0,210.38,69.41Z" transform="translate(-34.16 -7.53)"/><path class="cls-1" d="M253.94,80.34v5.4h-16V10.14h16V38.4q4.95-6.66,15.12-6.66a25.22,25.22,0,0,1,13.32,3.55,24.33,24.33,0,0,1,9.09,9.86,30.64,30.64,0,0,1,3.24,14.22,30.64,30.64,0,0,1-3.24,14.22,24.33,24.33,0,0,1-9.09,9.86A25.22,25.22,0,0,1,269.06,87Q258.89,87,253.94,80.34Zm21.69-10.93a14.73,14.73,0,0,0,3.42-10,14.73,14.73,0,0,0-3.42-10,11.5,11.5,0,0,0-9.09-3.91,12,12,0,0,0-9.36,3.91,14.49,14.49,0,0,0-3.51,10,14.49,14.49,0,0,0,3.51,10,12,12,0,0,0,9.36,3.91A11.47,11.47,0,0,0,275.63,69.41Z" transform="translate(-34.16 -7.53)"/><path class="cls-1" d="M352.4,33l-30.33,74.7H306.32l9.54-23.4L295.07,33H312.8l11.43,32.58L335.75,33Z" transform="translate(-34.16 -7.53)"/><path class="cls-2" d="M373.28,10.32a9.52,9.52,0,0,1,2.79,7,9.81,9.81,0,1,1-19.62,0,9.93,9.93,0,0,1,16.83-7Z" transform="translate(-34.16 -7.53)"/><rect class="cls-1" x="324.09" y="25.47" width="16.02" height="52.92"/><path class="cls-1" d="M419.45,33.85a21.08,21.08,0,0,1,8.64,6,14.87,14.87,0,0,1,3.51,9H416.12A5.17,5.17,0,0,0,413.28,45a12.19,12.19,0,0,0-6.07-1.4,14,14,0,0,0-6,1.13c-1.59.75-2.38,1.72-2.38,2.92s.93,2.28,2.79,3.06A46.9,46.9,0,0,0,411.35,53q11.43,1.71,16.29,5.67a13.28,13.28,0,0,1,4.86,10.89,13.84,13.84,0,0,1-3.33,9.18,21.43,21.43,0,0,1-9,6.12A34.62,34.62,0,0,1,407.75,87a33.21,33.21,0,0,1-12.38-2.2,21.25,21.25,0,0,1-8.82-6.26A15.86,15.86,0,0,1,383,69.09h15.48a5.65,5.65,0,0,0,3.06,4.1A12.64,12.64,0,0,0,408,74.76a14.26,14.26,0,0,0,6.39-1.26q2.52-1.26,2.52-3.06t-3-3.19a41.16,41.16,0,0,0-9.72-2.3q-10.35-1.53-15.62-5.22t-5.26-11.25a13.24,13.24,0,0,1,3.19-8.82,20.62,20.62,0,0,1,8.69-5.85,34.47,34.47,0,0,1,12.24-2.07A32.77,32.77,0,0,1,419.45,33.85Z" transform="translate(-34.16 -7.53)"/><path class="cls-1" d="M472.82,46.77H462.38v39h-16v-39H435.92V33h10.44V17.34h16V33h10.44Z" transform="translate(-34.16 -7.53)"/></svg>