<svg xmlns="http://www.w3.org/2000/svg" viewBox="0 0 56.18 56.18"><defs><style>.cls-1{fill:#455e99;}.cls-2{fill:#fff;}</style></defs><title>Asset 3</title><g id="Layer_2" data-name="Layer 2"><path class="cls-1" d="M53.08,56.18a3.1,3.1,0,0,0,3.1-3.1V3.1A3.1,3.1,0,0,0,53.08,0H3.1A3.1,3.1,0,0,0,0,3.1v50a3.1,3.1,0,0,0,3.1,3.1Z"/><path class="cls-2" d="M38.76,56.18V34.42h7.3L47.16,26h-8.4V20.53c0-2.45.68-4.13,4.2-4.13h4.49V8.82a60.21,60.21,0,0,0-6.54-.34c-6.47,0-10.9,4-10.9,11.21V26H22.68v8.47H30V56.18Z"/></g></svg>