<svg xmlns="http://www.w3.org/2000/svg" xmlns:xlink="http://www.w3.org/1999/xlink" viewBox="0 0 57 57"><defs><style>.cls-1{clip-path:url(#clip-path);}.cls-2{fill:none;}.cls-3{isolation:isolate;}.cls-4{mask:url(#mask);}.cls-5{clip-path:url(#clip-path-2);}.cls-6{fill:#ffe600;}.cls-7{fill:#392020;}.cls-8{filter:url(#luminosity-noclip);}</style><clipPath id="clip-path"><rect class="cls-2" x="-7097.08" y="-7062.42" width="9548.87" height="9548.88"/></clipPath><filter id="luminosity-noclip" x="-7097.08" y="-7062.42" width="9548.87" height="9548.88" filterUnits="userSpaceOnUse" color-interpolation-filters="sRGB"><feFlood flood-color="#fff" result="bg"/><feBlend in="SourceGraphic" in2="bg"/></filter><mask id="mask" x="-7097.08" y="-7062.42" width="9548.87" height="9548.88" maskUnits="userSpaceOnUse"><g class="cls-8"/></mask><clipPath id="clip-path-2"><rect class="cls-2" width="57" height="57"/></clipPath></defs><title>Asset 1</title><g id="Layer_2" data-name="Layer 2"><g class="cls-4"><g class="cls-5"><path class="cls-6" d="M4.56,0H52.44A4.56,4.56,0,0,1,57,4.56V52.44A4.57,4.57,0,0,1,52.44,57H4.57A4.57,4.57,0,0,1,0,52.44V4.56A4.56,4.56,0,0,1,4.56,0Z"/></g></g><path class="cls-7" d="M29.09,9.11C17,9.11,7.22,16.85,7.22,26.39c0,6.13,4.06,11.51,10.15,14.58l-2.06,7.69a.64.64,0,0,0,.15.66.63.63,0,0,0,.45.18.64.64,0,0,0,.38-.14l8.86-6a27,27,0,0,0,3.94.29C41.16,43.66,51,35.93,51,26.39S41.16,9.11,29.09,9.11"/><path class="cls-6" d="M14.9,23.65H12.52a1.56,1.56,0,0,1-.85-.23.89.89,0,0,1-.43-.63,1.87,1.87,0,0,1,0-.25,1,1,0,0,1,.37-.81,1.5,1.5,0,0,1,.94-.29h7.28a1.61,1.61,0,0,1,.84.22,1,1,0,0,1,.44.64,1.94,1.94,0,0,1,0,.24,1,1,0,0,1-.37.82,1.46,1.46,0,0,1-.93.29H17.41v8.2a1.32,1.32,0,0,1-.35.95,1.19,1.19,0,0,1-.92.36,1.26,1.26,0,0,1-.8-.26,1.22,1.22,0,0,1-.43-.71,1.88,1.88,0,0,1,0-.34Z"/><path class="cls-6" d="M21.7,22a1.09,1.09,0,0,1,.46-.61,1.46,1.46,0,0,1,.77-.19h.6a1.58,1.58,0,0,1,.82.2,1.32,1.32,0,0,1,.52.76l3,8.82a4.74,4.74,0,0,1,.21.7,2.51,2.51,0,0,1,0,.3,1.08,1.08,0,0,1-.35.81,1.14,1.14,0,0,1-.84.34,1.07,1.07,0,0,1-1.13-.72l-.65-1.92H21.14l-.66,1.92a1,1,0,0,1-1.12.72,1.22,1.22,0,0,1-.75-.23,1,1,0,0,1-.38-.65,1.12,1.12,0,0,1,0-.27,1.72,1.72,0,0,1,.07-.46c.05-.18.11-.37.17-.54Zm1.52,2h0L21.7,28.7h2.95Z"/><path class="cls-6" d="M28.56,22.54a1.32,1.32,0,0,1,.34-.95,1.35,1.35,0,0,1,1.73-.09,1.15,1.15,0,0,1,.42.71,1.22,1.22,0,0,1,0,.33v8.21h4.21a1.54,1.54,0,0,1,.85.22.92.92,0,0,1,.42.64,1.72,1.72,0,0,1,0,.24,1,1,0,0,1-.37.81,1.5,1.5,0,0,1-.94.29H30a1.69,1.69,0,0,1-1-.24,1.13,1.13,0,0,1-.47-.78,3.58,3.58,0,0,1-.06-.51Z"/><path class="cls-6" d="M36.84,22.54a1.37,1.37,0,0,1,.35-.95,1.23,1.23,0,0,1,.92-.36,1.19,1.19,0,0,1,.8.27,1.12,1.12,0,0,1,.43.71,1.22,1.22,0,0,1,0,.33v3.82l4-4.55a2.48,2.48,0,0,1,.48-.43.92.92,0,0,1,.53-.15,1.24,1.24,0,0,1,.75.24.91.91,0,0,1,.42.61s0,.05,0,.1a.37.37,0,0,0,0,.11,1.12,1.12,0,0,1-.12.47,2.38,2.38,0,0,1-.3.43L42.52,26l3.06,4.85.09.15a2.72,2.72,0,0,1,.37.73.41.41,0,0,0,0,.07c0,.05,0,.07,0,.09a1.13,1.13,0,0,1-.38,1,1.45,1.45,0,0,1-.92.3,1.33,1.33,0,0,1-.63-.14,1.7,1.7,0,0,1-.49-.55l-2.9-4.67-1.38,1.44v2.61a1.37,1.37,0,0,1-.35.95,1.21,1.21,0,0,1-.92.36,1.29,1.29,0,0,1-.81-.26,1.21,1.21,0,0,1-.42-.71,1.27,1.27,0,0,1,0-.34Z"/></g></svg>