<svg xmlns="http://www.w3.org/2000/svg" viewBox="0 0 56.51 56.09"><defs><style>.cls-1{fill:#2ba9e0;}.cls-2{fill:#fff;}</style></defs><title>Asset 4</title><g id="Layer_2" data-name="Layer 2"><path class="cls-1" d="M56.51,45.81A10.27,10.27,0,0,1,46.24,56.09h-36A10.27,10.27,0,0,1,0,45.81V10.28A10.27,10.27,0,0,1,10.27,0h36A10.27,10.27,0,0,1,56.51,10.28Z"/><path class="cls-2" d="M46.81,18a15.37,15.37,0,0,1-4.38,1.21A7.68,7.68,0,0,0,45.78,15,15.28,15.28,0,0,1,41,16.8,7.61,7.61,0,0,0,27.78,22,7.52,7.52,0,0,0,28,23.74a21.6,21.6,0,0,1-15.69-7.95A7.62,7.62,0,0,0,14.64,26,7.6,7.6,0,0,1,11.19,25v.1a7.63,7.63,0,0,0,6.11,7.46,7.86,7.86,0,0,1-2,.27,7.46,7.46,0,0,1-1.43-.14A7.61,7.61,0,0,0,21,38,15.29,15.29,0,0,1,9.7,41.13a21.55,21.55,0,0,0,11.67,3.42C35.37,44.55,43,33,43,22.89c0-.33,0-.66,0-1A15.68,15.68,0,0,0,46.81,18"/></g></svg>